{
  "accessors": [
    {
      "bufferView": 2,
      "componentType": 5126,
      "count": 14832,
      "max": [
        8.241600036621094,
        8.241600036621094,
        39.170352935791016
      ],
      "min": [
        -8.241600036621094,
        -8.241600036621094,
        2.4221999645233154
      ],
      "type": "VEC3"
    },
    {
      "bufferView": 2,
      "byteOffset": 177984,
      "componentType": 5126,
      "count": 14832,
      "max": [
        0.9999879598617554,
        0.9998692274093628,
        0.9987509250640869
      ],
      "min": [
        -0.9999719858169556,
        -0.9999503493309021,
        -1.0
      ],
      "type": "VEC3"
    },
    {
      "bufferView": 1,
      "componentType": 5126,
      "count": 14832,
      "max": [
        0.9969000220298767,
        0.9968000054359436
      ],
      "min": [
        0.005400000140070915,
        0.005799999926239252
      ],
      "type": "VEC2"
    },
    {
      "bufferView": 0,
      "componentType": 5125,
      "count": 69996,
      "type": "SCALAR"
    },
    {
      "bufferView": 2,
      "byteOffset": 355968,
      "componentType": 5126,
      "count": 1036,
      "max": [
        2.330899953842163,
        2.5697999000549316,
        41.21649932861328
      ],
      "min": [
        -2.3685998916625977,
        -2.5780999660491943,
        37.37810134887695
      ],
      "type": "VEC3"
    },
    {
      "bufferView": 2,
      "byteOffset": 368400,
      "componentType": 5126,
      "count": 1036,
      "max": [
        0.9991365075111389,
        0.9971562623977661,
        0.9924526214599609
      ],
      "min": [
        -0.9984052777290344,
        -0.9971504807472229,
        -0.9924448132514954
      ],
      "type": "VEC3"
    },
    {
      "bufferView": 1,
      "byteOffset": 118656,
      "componentType": 5126,
      "count": 1036,
      "max": [
        0.6021999716758728,
        0.6452000141143799
      ],
      "min": [
        0.004800000227987766,
        0.007000000216066837
      ],
      "type": "VEC2"
    },
    {
      "bufferView": 0,
      "byteOffset": 279984,
      "componentType": 5125,
      "count": 4728,
      "type": "SCALAR"
    },
    {
      "bufferView": 2,
      "byteOffset": 380832,
      "componentType": 5126,
      "count": 1561,
      "max": [
        8.470000267028809,
        8.47029972076416,
        43.84109878540039
      ],
      "min": [
        -8.452300071716309,
        -8.741999626159668,
        37.921600341796875
      ],
      "type": "VEC3"
    },
    {
      "bufferView": 2,
      "byteOffset": 399564,
      "componentType": 5126,
      "count": 1561,
      "max": [
        0.9615147709846497,
        0.9650228023529053,
        0.9999918341636658
      ],
      "min": [
        -0.9611625075340271,
        -0.9628440141677856,
        -0.9645547270774841
      ],
      "type": "VEC3"
    },
    {
      "bufferView": 1,
      "byteOffset": 126944,
      "componentType": 5126,
      "count": 1561,
      "max": [
        0.991599977016449,
        0.9921000003814697
      ],
      "min": [
        0.005499999970197678,
        0.5055999755859375
      ],
      "type": "VEC2"
    },
    {
      "bufferView": 0,
      "byteOffset": 298896,
      "componentType": 5125,
      "count": 7560,
      "type": "SCALAR"
    }
  ],
  "asset": {
    "extras": {
      "author": "chinabazooka (https://sketchfab.com/chinabazooka)",
      "license": "CC-BY-4.0 (http://creativecommons.org/licenses/by/4.0/)",
      "source": "https://sketchfab.com/3d-models/jellyfish-d93ac9460e8946ce9b33048e4954b0dd",
      "title": "Jellyfish"
    },
    "generator": "Sketchfab-12.65.0",
    "version": "2.0"
  },
  "bufferViews": [
    {
      "buffer": 0,
      "byteLength": 329136,
      "name": "floatBufferViews",
      "target": 34963
    },
    {
      "buffer": 0,
      "byteLength": 139432,
      "byteOffset": 329136,
      "byteStride": 8,
      "name": "floatBufferViews",
      "target": 34962
    },
    {
      "buffer": 0,
      "byteLength": 418296,
      "byteOffset": 468568,
      "byteStride": 12,
      "name": "floatBufferViews",
      "target": 34962
    }
  ],
  "buffers": [
    {
      "byteLength": 886864,
      "uri": "scene.bin"
    }
  ],
  "images": [
    {
      "uri": "textures/01_-_Default_baseColor.png"
    },
    {
      "uri": "textures/03_-_Default_baseColor.png"
    }
  ],
  "materials": [
    {
      "doubleSided": true,
      "emissiveFactor": [
        1.0,
        1.0,
        1.0
      ],
      "emissiveTexture": {
        "index": 0
      },
      "name": "01_-_Default",
      "pbrMetallicRoughness": {
        "baseColorTexture": {
          "index": 0
        },
        "metallicFactor": 0.0,
        "roughnessFactor": 0.6
      }
    },
    {
      "doubleSided": true,
      "emissiveFactor": [
        1.0,
        1.0,
        1.0
      ],
      "emissiveTexture": {
        "index": 0
      },
      "name": "02_-_Default",
      "pbrMetallicRoughness": {
        "baseColorTexture": {
          "index": 0
        },
        "metallicFactor": 0.0,
        "roughnessFactor": 0.6
      }
    },
    {
      "alphaMode": "BLEND",
      "doubleSided": true,
      "emissiveFactor": [
        0.9232088414634145,
        0.9232088414634145,
        0.9232088414634145
      ],
      "emissiveTexture": {
        "index": 0
      },
      "name": "03_-_Default",
      "pbrMetallicRoughness": {
        "baseColorTexture": {
          "index": 1
        },
        "metallicFactor": 0.0,
        "roughnessFactor": 0.6
      }
    }
  ],
  "meshes": [
    {
      "name": "Object02_01 - Default_0",
      "primitives": [
        {
          "attributes": {
            "NORMAL": 1,
            "POSITION": 0,
            "TEXCOORD_0": 2
          },
          "indices": 3,
          "material": 0,
          "mode": 4
        }
      ]
    },
    {
      "name": "Object003_02 - Default_0",
      "primitives": [
        {
          "attributes": {
            "NORMAL": 5,
            "POSITION": 4,
            "TEXCOORD_0": 6
          },
          "indices": 7,
          "material": 1,
          "mode": 4
        }
      ]
    },
    {
      "name": "Object004_03 - Default_0",
      "primitives": [
        {
          "attributes": {
            "NORMAL": 9,
            "POSITION": 8,
            "TEXCOORD_0": 10
          },
          "indices": 11,
          "material": 2,
          "mode": 4
        }
      ]
    }
  ],
  "nodes": [
    {
      "children": [
        1
      ],
      "matrix": [
        1.0,
        0.0,
        0.0,
        0.0,
        0.0,
        2.220446049250313e-16,
        -1.0,
        0.0,
        0.0,
        1.0,
        2.220446049250313e-16,
        0.0,
        0.0,
        0.0,
        0.0,
        1.0
      ],
      "name": "Sketchfab_model"
    },
    {
      "children": [
        2
      ],
      "matrix": [
        1.0,
        0.0,
        0.0,
        0.0,
        0.0,
        0.0,
        1.0,
        0.0,
        0.0,
        -1.0,
        0.0,
        0.0,
        0.0,
        0.0,
        0.0,
        1.0
      ],
      "name": "shuimu_01.FBX"
    },
    {
      "children": [
        3,
        5,
        7
      ],
      "name": "RootNode"
    },
    {
      "children": [
        4
      ],
      "matrix": [
        1.0,
        0.0,
        0.0,
        0.0,
        0.0,
        2.220446049250313e-16,
        -1.0,
        0.0,
        0.0,
        1.0,
        2.220446049250313e-16,
        0.0,
        0.0,
        0.0,
        0.0,
        1.0
      ],
      "name": "Object02"
    },
    {
      "mesh": 0,
      "name": "Object02_01 - Default_0"
    },
    {
      "children": [
        6
      ],
      "matrix": [
        1.0,
        0.0,
        0.0,
        0.0,
        0.0,
        2.220446049250313e-16,
        -1.0,
        0.0,
        0.0,
        1.0,
        2.220446049250313e-16,
        0.0,
        0.0,
        0.0,
        0.0,
        1.0
      ],
      "name": "Object003"
    },
    {
      "mesh": 1,
      "name": "Object003_02 - Default_0"
    },
    {
      "children": [
        8
      ],
      "matrix": [
        1.0,
        0.0,
        0.0,
        0.0,
        0.0,
        2.220446049250313e-16,
        -1.0,
        0.0,
        0.0,
        1.0,
        2.220446049250313e-16,
        0.0,
        0.0,
        0.0,
        0.0,
        1.0
      ],
      "name": "Object004"
    },
    {
      "mesh": 2,
      "name": "Object004_03 - Default_0"
    }
  ],
  "samplers": [
    {
      "magFilter": 9729,
      "minFilter": 9987,
      "wrapS": 10497,
      "wrapT": 10497
    }
  ],
  "scene": 0,
  "scenes": [
    {
      "name": "Sketchfab_Scene",
      "nodes": [
        0
      ]
    }
  ],
  "textures": [
    {
      "sampler": 0,
      "source": 0
    },
    {
      "sampler": 0,
      "source": 1
    }
  ]
}
