{
  "accessors": [
    {
      "bufferView": 2,
      "componentType": 5126,
      "count": 31663,
      "max": [
        0.13558049499988556,
        0.2873620092868805,
        0.29414090514183044
      ],
      "min": [
        -0.12466999888420105,
        -0.17212310433387756,
        -0.17766839265823364
      ],
      "type": "VEC3"
    },
    {
      "bufferView": 2,
      "byteOffset": 379956,
      "componentType": 5126,
      "count": 31663,
      "max": [
        0.9998812079429626,
        0.9992283582687378,
        0.9999881982803345
      ],
      "min": [
        -0.999941885471344,
        -0.9998084902763367,
        -0.9993245601654053
      ],
      "type": "VEC3"
    },
    {
      "bufferView": 1,
      "componentType": 5126,
      "count": 31663,
      "max": [
        0.651611328125,
        0.999267578125
      ],
      "min": [
        0.0,
        0.0
      ],
      "type": "VEC2"
    },
    {
      "bufferView": 0,
      "componentType": 5125,
      "count": 107178,
      "type": "SCALAR"
    }
  ],
  "asset": {
    "extras": {
      "author": "Innovation Studio (https://sketchfab.com/cmp_innovation_studio)",
      "license": "CC-BY-4.0 (http://creativecommons.org/licenses/by/4.0/)",
      "source": "https://sketchfab.com/3d-models/turkey-vulture-4005811722a54afaba3d0c29d58b657d",
      "title": "Turkey Vulture"
    },
    "generator": "Sketchfab-12.67.0",
    "version": "2.0"
  },
  "bufferViews": [
    {
      "buffer": 0,
      "byteLength": 428712,
      "name": "floatBufferViews",
      "target": 34963
    },
    {
      "buffer": 0,
      "byteLength": 253304,
      "byteOffset": 428712,
      "byteStride": 8,
      "name": "floatBufferViews",
      "target": 34962
    },
    {
      "buffer": 0,
      "byteLength": 759912,
      "byteOffset": 682016,
      "byteStride": 12,
      "name": "floatBufferViews",
      "target": 34962
    }
  ],
  "buffers": [
    {
      "byteLength": 1441928,
      "uri": "scene.bin"
    }
  ],
  "images": [
    {
      "uri": "textures/material_0_baseColor.jpeg"
    }
  ],
  "materials": [
    {
      "doubleSided": true,
      "name": "material_0",
      "pbrMetallicRoughness": {
        "baseColorTexture": {
          "index": 0
        },
        "metallicFactor": 0.0,
        "roughnessFactor": 0.6
      }
    }
  ],
  "meshes": [
    {
      "name": "material_0-material",
      "primitives": [
        {
          "attributes": {
            "NORMAL": 1,
            "POSITION": 0,
            "TEXCOORD_0": 2
          },
          "indices": 3,
          "material": 0,
          "mode": 4
        }
      ]
    }
  ],
  "nodes": [
    {
      "children": [
        1
      ],
      "matrix": [
        1.0,
        0.0,
        0.0,
        0.0,
        0.0,
        2.220446049250313e-16,
        -1.0,
        0.0,
        0.0,
        1.0,
        2.220446049250313e-16,
        0.0,
        0.0,
        0.0,
        0.0,
        1.0
      ],
      "name": "Sketchfab_model"
    },
    {
      "children": [
        2
      ],
      "name": "Collada visual scene group"
    },
    {
      "children": [
        3
      ],
      "matrix": [
        0.6076545,
        0.7827411,
        0.1344335,
        0.0,
        -0.4716832,
        0.2195014,
        0.8540106,
        0.0,
        0.6389609,
        -0.5823534,
        0.5025868,
        0.0,
        0.0,
        0.0,
        -0.1019774,
        1.0
      ],
      "name": "model_mesh2"
    },
    {
      "mesh": 0,
      "name": "material_0-material"
    }
  ],
  "samplers": [
    {
      "magFilter": 9729,
      "minFilter": 9987,
      "wrapS": 10497,
      "wrapT": 10497
    }
  ],
  "scene": 0,
  "scenes": [
    {
      "name": "Sketchfab_Scene",
      "nodes": [
        0
      ]
    }
  ],
  "textures": [
    {
      "sampler": 0,
      "source": 0
    }
  ]
}
