{
  "accessors": [
    {
      "bufferView": 2,
      "componentType": 5126,
      "count": 21222,
      "max": [
        0.8688812255859375,
        2.7473678588867188,
        1.8110408782958984
      ],
      "min": [
        -0.8688802719116211,
        -3.4844322204589844,
        -4.070735931396484
      ],
      "type": "VEC3"
    },
    {
      "bufferView": 2,
      "byteOffset": 254664,
      "componentType": 5126,
      "count": 21222,
      "max": [
        0.9999693036079407,
        0.9999386072158813,
        0.9998255968093872
      ],
      "min": [
        -0.9999752640724182,
        -0.9999997615814209,
        -0.9987754225730896
      ],
      "type": "VEC3"
    },
    {
      "bufferView": 1,
      "componentType": 5126,
      "count": 21222,
      "max": [
        0.9911773800849915,
        0.993165910243988
      ],
      "min": [
        0.0068634748458862305,
        0.006294727325439453
      ],
      "type": "VEC2"
    },
    {
      "bufferView": 1,
      "byteOffset": 169776,
      "componentType": 5126,
      "count": 21222,
      "max": [
        0.9911773800849915,
        0.993165910243988
      ],
      "min": [
        0.0068634748458862305,
        0.006294727325439453
      ],
      "type": "VEC2"
    },
    {
      "bufferView": 1,
      "byteOffset": 339552,
      "componentType": 5126,
      "count": 21222,
      "max": [
        0.9911773800849915,
        0.993165910243988
      ],
      "min": [
        0.0068634748458862305,
        0.006294727325439453
      ],
      "type": "VEC2"
    },
    {
      "bufferView": 0,
      "componentType": 5125,
      "count": 109566,
      "type": "SCALAR"
    }
  ],
  "asset": {
    "extras": {
      "author": "fakepad (https://sketchfab.com/fakepad)",
      "license": "CC-BY-4.0 (http://creativecommons.org/licenses/by/4.0/)",
      "source": "https://sketchfab.com/3d-models/parrot-92e36afa506e492eabc12b6fd34c45c9",
      "title": "Parrot"
    },
    "generator": "Sketchfab-12.67.0",
    "version": "2.0"
  },
  "bufferViews": [
    {
      "buffer": 0,
      "byteLength": 438264,
      "name": "floatBufferViews",
      "target": 34963
    },
    {
      "buffer": 0,
      "byteLength": 509328,
      "byteOffset": 438264,
      "byteStride": 8,
      "name": "floatBufferViews",
      "target": 34962
    },
    {
      "buffer": 0,
      "byteLength": 509328,
      "byteOffset": 947592,
      "byteStride": 12,
      "name": "floatBufferViews",
      "target": 34962
    }
  ],
  "buffers": [
    {
      "byteLength": 1456920,
      "uri": "scene.bin"
    }
  ],
  "extensionsRequired": [
    "KHR_materials_pbrSpecularGlossiness"
  ],
  "extensionsUsed": [
    "KHR_materials_pbrSpecularGlossiness"
  ],
  "images": [
    {
      "uri": "textures/material_diffuse.png"
    },
    {
      "uri": "textures/material_specularGlossiness.png"
    }
  ],
  "materials": [
    {
      "doubleSided": true,
      "extensions": {
        "KHR_materials_pbrSpecularGlossiness": {
          "diffuseFactor": [
            1.0,
            1.0,
            1.0,
            1.0
          ],
          "diffuseTexture": {
            "index": 0
          },
          "glossinessFactor": 1.0,
          "specularFactor": [
            1.0,
            1.0,
            1.0
          ],
          "specularGlossinessTexture": {
            "index": 1
          }
        }
      },
      "name": "material"
    }
  ],
  "meshes": [
    {
      "name": "Object_0",
      "primitives": [
        {
          "attributes": {
            "NORMAL": 1,
            "POSITION": 0,
            "TEXCOORD_0": 2,
            "TEXCOORD_1": 3,
            "TEXCOORD_2": 4
          },
          "indices": 5,
          "material": 0,
          "mode": 4
        }
      ]
    }
  ],
  "nodes": [
    {
      "children": [
        1
      ],
      "matrix": [
        1.0,
        0.0,
        0.0,
        0.0,
        0.0,
        2.220446049250313e-16,
        -1.0,
        0.0,
        0.0,
        1.0,
        2.220446049250313e-16,
        0.0,
        0.0,
        0.0,
        0.0,
        1.0
      ],
      "name": "Sketchfab_model"
    },
    {
      "children": [
        2
      ],
      "name": "root"
    },
    {
      "children": [
        3
      ],
      "matrix": [
        1.0,
        0.0,
        0.0,
        0.0,
        0.0,
        2.220446049250313e-16,
        1.0,
        0.0,
        0.0,
        -1.0,
        2.220446049250313e-16,
        0.0,
        0.0,
        0.0,
        0.0,
        1.0
      ],
      "name": "GLTF_SceneRootNode"
    },
    {
      "children": [
        4
      ],
      "name": "root_0"
    },
    {
      "children": [
        5
      ],
      "matrix": [
        0.05448156441810397,
        0.0,
        -0.055137863501328294,
        0.0,
        0.0,
        0.07751403748989105,
        0.0,
        0.0,
        0.05513787410093448,
        0.0,
        0.054481574891544364,
        0.0,
        0.0660746768116951,
        0.018922004848718643,
        0.32403039932250977,
        1.0
      ],
      "name": "node_id35_1"
    },
    {
      "mesh": 0,
      "name": "Object_5"
    }
  ],
  "samplers": [
    {
      "magFilter": 9729,
      "minFilter": 9987,
      "wrapS": 10497,
      "wrapT": 10497
    }
  ],
  "scene": 0,
  "scenes": [
    {
      "name": "Sketchfab_Scene",
      "nodes": [
        0
      ]
    }
  ],
  "textures": [
    {
      "sampler": 0,
      "source": 0
    },
    {
      "sampler": 0,
      "source": 1
    }
  ]
}
